<svg width="45" height="45" viewBox="0 0 45 45" fill="none" xmlns="http://www.w3.org/2000/svg">
<path d="M22.5 0.5C34.6503 0.5 44.5 10.3497 44.5 22.5C44.5 34.6503 34.6503 44.5 22.5 44.5C10.3497 44.5 0.5 34.6503 0.5 22.5C0.5 10.3497 10.3497 0.5 22.5 0.5ZM12.875 21.125C12.1156 21.125 11.5 21.7406 11.5 22.5C11.5 23.2594 12.1156 23.875 12.875 23.875H28.8055L22.9027 29.7777C22.3658 30.3147 22.3658 31.1853 22.9027 31.7223C23.4397 32.2592 24.3103 32.2592 24.8473 31.7223L33.0973 23.4723C33.6342 22.9353 33.6342 22.0647 33.0973 21.5277L24.8473 13.2777C24.3103 12.7408 23.4397 12.7408 22.9027 13.2777C22.3658 13.8147 22.3658 14.6853 22.9027 15.2223L28.8055 21.125H12.875Z" fill="#008001"/>
</svg>
