<svg width="15" height="15" viewBox="0 0 15 15" fill="none" xmlns="http://www.w3.org/2000/svg">
<path d="M2.49875 11.8637C1.92062 11.8637 1.25 12.0112 1.25 11.2418V9.89995C1.25 8.82495 1.25 8.28745 1.56188 7.93495C2.04938 7.38495 2.9925 7.5137 3.6475 7.5137C4.15312 7.5137 4.77563 7.4437 5.20375 7.77058C5.4875 7.98745 5.6225 8.34558 5.8925 9.06183C5.99563 9.33558 6.06938 9.71433 6.3225 9.88933C6.48313 9.99995 6.6925 9.99995 7.11125 9.99995H8.43125C9.25812 9.99995 9.53812 9.3587 9.9925 8.7562H10.9637C12.3325 8.7562 13.6 9.55433 13.7294 11.0262C13.755 11.3206 13.8263 11.8637 13.3919 11.8637H12.49M9.99188 11.8637H5.30937" stroke="#313131" stroke-width="0.8" stroke-linecap="round" stroke-linejoin="round"/>
<path d="M3.75 13.125C4.44036 13.125 5 12.5654 5 11.875C5 11.1846 4.44036 10.625 3.75 10.625C3.05964 10.625 2.5 11.1846 2.5 11.875C2.5 12.5654 3.05964 13.125 3.75 13.125Z" stroke="#313131" stroke-width="0.8" stroke-linecap="round" stroke-linejoin="round"/>
<path d="M11.25 13.125C11.9404 13.125 12.5 12.5654 12.5 11.875C12.5 11.1846 11.9404 10.625 11.25 10.625C10.5596 10.625 10 11.1846 10 11.875C10 12.5654 10.5596 13.125 11.25 13.125Z" stroke="#313131" stroke-width="0.8" stroke-linecap="round" stroke-linejoin="round"/>
<path d="M2.5 7.5V1.875M11.875 8.75L10 1.875M1.25 1.875H11.25M10 8.75L8.75 6.875M8.125 7.5L9.375 6.25M4.0625 7.5C4.0625 6.23125 3.9875 5 2.5 5" stroke="#313131" stroke-width="0.8" stroke-linecap="round" stroke-linejoin="round"/>
</svg>
