<svg width="15" height="15" viewBox="0 0 15 15" fill="none" xmlns="http://www.w3.org/2000/svg">
<path d="M8.8575 1.875C9.18899 1.87507 9.50688 2.00681 9.74125 2.24125L12.7587 5.25875C12.9932 5.49312 13.1249 5.81101 13.125 6.1425V10.625H14.375V11.875H9.29625C9.15723 12.4114 8.84402 12.8865 8.40579 13.2256C7.96756 13.5647 7.42912 13.7487 6.875 13.7487C6.32088 13.7487 5.78244 13.5647 5.34421 13.2256C4.90598 12.8865 4.59277 12.4114 4.45375 11.875H1.875C1.70924 11.875 1.55027 11.8092 1.43306 11.6919C1.31585 11.5747 1.25 11.4158 1.25 11.25V3.125C1.25 2.79348 1.3817 2.47554 1.61612 2.24112C1.85054 2.0067 2.16848 1.875 2.5 1.875H8.8575ZM6.875 10C6.54348 10 6.22554 10.1317 5.99112 10.3661C5.7567 10.6005 5.625 10.9185 5.625 11.25C5.625 11.5815 5.7567 11.8995 5.99112 12.1339C6.22554 12.3683 6.54348 12.5 6.875 12.5C7.20652 12.5 7.52446 12.3683 7.75888 12.1339C7.9933 11.8995 8.125 11.5815 8.125 11.25C8.125 10.9185 7.9933 10.6005 7.75888 10.3661C7.52446 10.1317 7.20652 10 6.875 10ZM8.8575 3.125H2.5V10.625H4.45375C4.59277 10.0886 4.90598 9.61355 5.34421 9.27442C5.78244 8.93529 6.32088 8.75129 6.875 8.75129C7.42912 8.75129 7.96756 8.93529 8.40579 9.27442C8.84402 9.61355 9.15723 10.0886 9.29625 10.625H11.875V6.1425L8.8575 3.125ZM8.75 4.375V8.125H3.75V4.375H8.75ZM7.5 5.625H5V6.875H7.5V5.625Z" fill="#313131"/>
</svg>
