<svg width="15" height="15" viewBox="0 0 15 15" fill="none" xmlns="http://www.w3.org/2000/svg">
<path d="M5.625 10.625C5.625 10.9565 5.4933 11.2745 5.25888 11.5089C5.02446 11.7433 4.70652 11.875 4.375 11.875C4.04348 11.875 3.72554 11.7433 3.49112 11.5089C3.2567 11.2745 3.125 10.9565 3.125 10.625C3.125 10.2935 3.2567 9.97554 3.49112 9.74112C3.72554 9.5067 4.04348 9.375 4.375 9.375C4.70652 9.375 5.02446 9.5067 5.25888 9.74112C5.4933 9.97554 5.625 10.2935 5.625 10.625ZM5.625 10.625H9.375M9.375 10.625C9.375 10.9565 9.5067 11.2745 9.74112 11.5089C9.97554 11.7433 10.2935 11.875 10.625 11.875C10.9565 11.875 11.2745 11.7433 11.5089 11.5089C11.7433 11.2745 11.875 10.9565 11.875 10.625C11.875 10.2935 11.7433 9.97554 11.5089 9.74112C11.2745 9.5067 10.9565 9.375 10.625 9.375C10.2935 9.375 9.97554 9.5067 9.74112 9.74112C9.5067 9.97554 9.375 10.2935 9.375 10.625Z" stroke="#313131" stroke-linecap="round" stroke-linejoin="round"/>
<path d="M11.875 10.625H12.5C12.6658 10.625 12.8247 10.5592 12.9419 10.4419C13.0592 10.3247 13.125 10.1658 13.125 10V7.17C13.125 6.97604 13.0798 6.78475 12.9931 6.61125L12.3931 5.41125C12.2374 5.09987 11.998 4.838 11.7019 4.65498C11.4057 4.47196 11.0644 4.37501 10.7162 4.375H3.75C3.25272 4.375 2.77581 4.57254 2.42417 4.92417C2.07254 5.27581 1.875 5.75272 1.875 6.25V10C1.875 10.1658 1.94085 10.3247 2.05806 10.4419C2.17527 10.5592 2.33424 10.625 2.5 10.625H3.125M1.875 7.5H13.125M9.375 7.5V4.375M3.75 3.4375C3.75 3.18886 3.84877 2.9504 4.02459 2.77459C4.2004 2.59877 4.43886 2.5 4.6875 2.5H9.0625C9.31114 2.5 9.5496 2.59877 9.72541 2.77459C9.90123 2.9504 10 3.18886 10 3.4375C10 3.68614 9.90123 3.9246 9.72541 4.10041C9.5496 4.27623 9.31114 4.375 9.0625 4.375H4.6875C4.43886 4.375 4.2004 4.27623 4.02459 4.10041C3.84877 3.9246 3.75 3.68614 3.75 3.4375Z" stroke="#313131" stroke-linecap="round" stroke-linejoin="round"/>
</svg>
