<svg width="9" height="9" viewBox="0 0 9 9" fill="none" xmlns="http://www.w3.org/2000/svg">
<path fill-rule="evenodd" clip-rule="evenodd" d="M0.5 1.125L4.4375 0L8.375 1.125V4.51125C8.375 7.13813 5.38812 9 4.4375 9C3.48688 9 0.5 7.13813 0.5 4.51125V1.125ZM6.70113 3.54113C6.89639 3.34586 6.89639 3.02928 6.70113 2.83402C6.50587 2.63876 6.18929 2.63876 5.99402 2.83402L3.72258 5.10547L2.88295 4.26584C2.68769 4.07058 2.3711 4.07058 2.17584 4.26584C1.98058 4.4611 1.98058 4.77768 2.17584 4.97294L3.36902 6.16613C3.56429 6.36139 3.88087 6.36139 4.07613 6.16613L6.70113 3.54113Z" fill="#155EA0"/>
</svg>
